# xmcd CD database file
#
# Track frame offsets:
#	150
#	41100
#	58650
#	74100
#	96600
#	134850
#	171300
#	187800
#	204600
#	219300
#	246900
#
# Disc length: 3475 seconds
#
# Revision: 1
# Processed by: cddbd v1.5.2PL0 Copyright (c) Steve Scherf et al.
# Submitted via: CDex 1.70beta2
#
DISCID=b80d910b
DTITLE=Antonio Cocomazzi - Mare solo
DYEAR=2000
DGENRE=Jazz
TTITLE0=Perdida serenidad
TTITLE1=Note contro note
TTITLE2=Mare solo
TTITLE3=Le stesse cose
TTITLE4=Terra
TTITLE5=Non si parte più
TTITLE6=Sguardi persi nel mare
TTITLE7=Fantasia garganica
TTITLE8=Une belle soirée
TTITLE9=Ebrezza sonora
TTITLE10=Aqui onde a terra se acaba e o mar começa
EXTD=YEAR: 2000
EXTT0=
EXTT1=
EXTT2=
EXTT3=
EXTT4=
EXTT5=
EXTT6=
EXTT7=
EXTT8=
EXTT9=
EXTT10=
PLAYORDER=
